# Rhino

mtllib M_3D SYMBOL_SPLINE CURVE.mtl
usemtl diffuse_0
v 4.0656835418099941 11.491403736676927 52.525438724534027
v 1.4381025925325746 14.941052218255638 52.343908926775626
v -1.3065431607556139 18.280904159079718 51.949848296767698
v -4.1887344244508169 21.468361559469209 51.328880603302416
v -7.2291212636988043 24.446495910035758 50.461319295087627
v -10.444968024462495 27.141246661453415 49.327856343971476
v -13.842923421703356 29.455707876940174 47.909998990353373
v -17.407640724366182 31.282610076543119 46.204569970546387
v -21.095678502128383 32.494911951657855 44.225265752633675
v -24.819997044750579 33.025846767194267 42.028947584852787
v -28.496564868398263 32.879761905547639 39.697315213024737
v -32.024185325453757 32.045858761799501 37.27827682212147
v -35.293707228267579 30.546312673576956 34.821767394828349
v -38.247113473875899 28.494264352755117 32.372852729810312
v -40.862761201395166 25.999532518543109 29.956591725509412
v -43.149927512138909 23.170404434657325 27.581398260061395
v -45.131818784863036 20.092366141940442 25.245171454649562
v -46.834459411967494 16.832070462812585 22.938742812345343
v -48.283032710112892 13.43918073010949 20.651713920446721
v -49.49788641051763 9.9526040555258195 18.370588129259165
v -50.495557925061568 6.4022194324432293 16.083323212832166
v -51.289295669397823 2.8136983264322515 13.776186487063553
v -51.886346731537408 -0.79097984334402272 11.435352197591961
v -52.291672066475265 -4.3913328053305714 9.0472779991152912
v -52.50579975917919 -7.9658120137752384 6.5960947657868108
v -52.525438724534041 -11.491403736676968 4.0656835418099755
v -52.343908926775612 -14.941052218255853 1.4381025925324042
v -51.949848296767684 -18.280904159079853 -1.3065431607557254
v -51.32888060330238 -21.4683615594694 -4.1887344244510052
v -50.461319295087577 -24.446495910035875 -7.229121263698941
v -49.327856343971376 -27.141246661453589 -10.444968024462725
v -47.90999899035328 -29.455707876940298 -13.842923421703572
v -46.204569970546252 -31.282610076543211 -17.407640724366392
v -44.225265752633582 -32.494911951657883 -21.095678502128585
v -42.028947584852652 -33.025846767194281 -24.819997044750753
v -39.697315213024616 -32.879761905547589 -28.496564868398476
v -37.278276822121356 -32.045858761799458 -32.0241853254539
v -34.821767394828179 -30.546312673576828 -35.293707228267778
v -32.372852729810297 -28.494264352755085 -38.24711347387592
v -29.956591725509291 -25.999532518543017 -40.862761201395287
v -27.581398260061377 -23.170404434657279 -43.149927512138916
v -25.245171454649441 -20.092366141940285 -45.13181878486315
v -22.938742812345286 -16.832070462812485 -46.834459411967515
v -20.651713920446564 -13.439180730109273 -48.283032710112998
v -18.370588129259122 -9.9526040555257573 -49.49788641051763
v -16.083323212832045 -6.4022194324430357 -50.495557925061632
v -13.776186487063541 -2.8136983264322404 -51.289295669397795
v -11.43535219759198 0.79097984334400173 -51.886346731537429
v -9.0472779991153978 4.391332805330415 -52.291672066475215
v -6.5960947657867584 7.9658120137753192 -52.50579975917919
v -4.0656835418099302 11.491403736677031 -52.525438724534091
v -1.4381025925321864 14.941052218256131 -52.343908926775562
v 1.3065431607557434 18.280904159079856 -51.949848296767684
v 4.1887344244512086 21.468361559469646 -51.328880603302309
v 7.2291212636991355 24.446495910036038 -50.46131929508752
v 10.44496802446298 27.141246661453788 -49.32785634397127
v 13.842923421703594 29.455707876940302 -47.909998990353259
v 17.407640724366647 31.282610076543325 -46.204569970546153
v 21.095678502128781 32.494911951657947 -44.225265752633447
v 24.819997044751112 33.025846767194302 -42.028947584852453
v 28.496564868398618 32.879761905547582 -39.697315213024531
v 32.024185325454098 32.045858761799373 -37.278276822121207
v 35.293707228267969 30.546312673576718 -34.821767394828029
v 38.247113473876112 28.494264352754936 -32.372852729810127
v 40.862761201395436 25.999532518542829 -29.956591725509146
v 43.149927512139072 23.170404434657094 -27.581398260061214
v 45.131818784863214 20.09236614194015 -25.245171454649348
v 46.834459411967629 16.832070462812286 -22.938742812345144
v 48.283032710113076 13.439180730109101 -20.651713920446468
v 49.497886410517715 9.9526040555255033 -18.370588129258959
v 50.495557925061696 6.4022194324427772 -16.083323212831868
v 51.289295669397823 2.8136983264320516 -13.776186487063427
v 51.886346731537429 -0.79097984334399118 -11.435352197591985
v 52.291672066475236 -4.3913328053306699 -9.0472779991152237
v 52.505799759179183 -7.96581201377517 -6.596094765786864
v 52.525438724534062 -11.491403736677031 -4.0656835418099204
v 52.343908926775626 -14.941052218255766 -1.438102592532482
v 51.949848296767641 -18.280904159080002 1.3065431607558708
v 51.328880603302423 -21.468361559469205 4.1887344244507991
v 50.461319295087542 -24.446495910036006 7.2291212636990858
v 49.327856343971469 -27.141246661453401 10.444968024462479
v 47.909998990353245 -29.455707876940387 13.842923421703684
v 46.204569970546203 -31.282610076543232 17.407640724366502
v 44.225265752633597 -32.494911951657883 21.095678502128525
v 42.028947584852617 -33.025846767194295 24.819997044750828
v 39.697315213024581 -32.879761905547589 28.496564868398544
v 37.278276822121271 -32.045858761799416 32.024185325454027
v 34.82176739482798 -30.546312673576679 35.293707228268062
v 32.372852729809999 -28.494264352754819 38.24711347387624
v 29.956591725509153 -25.999532518542832 40.862761201395429
v 27.581398260061182 -23.170404434657048 43.149927512139108
v 25.245171454649459 -20.0923661419403 45.131818784863128
v 22.938742812345087 -16.832070462812201 46.834459411967657
v 20.651713920446777 -13.439180730109573 48.283032710112877
v 18.370588129259094 -9.95260405552572 49.497886410517651
v 16.083323212832056 -6.4022194324430597 50.495557925061632
v 13.776186487063516 -2.8136983264321986 51.289295669397809
v 11.435352197592049 0.79097984334389737 51.886346731537394
v 9.0472779991153409 4.3913328053304879 52.291672066475222
v 6.5960947657869893 7.9658120137749995 52.505799759179176
cstype bspline
deg 4
curv 0 100 1 2 3 4 5 6 7 8 9 10 11 12 13 14 15 16 17 18 19 20 21 22 23 24 25 26 27 28 29 30 31 32 33 34 35 36 37 38 39 40 41 42 43 44 45 46 47 48 49 50 51 52 53 54 55 56 57 58 59 60 61 62 63 64 65 66 67 68 69 70 71 72 73 74 75 76 77 78 79 80 81 82 83 84 85 86 87 88 89 90 91 92 93 94 95 96 97 98 99 100 1 2 3 4
parm u -4 -3 -2 -1 0 1 2 3 4 5 6 7 8 9 10 11 12 13 14 15 16 17 18 19 20 21 22 23 24 25 26 27 28 29 30 31 32 33 34 35 36 37 38 39 40 41 42 43 44 45 46 47 48 49 50 51 52 53 54 55 56 57 58 59 60 61 62 63 64 65 66 67 68 69 70 71 72 73 74 75 76 77 78 79 80 81 82 83 84 85 86 87 88 89 90 91 92 93 94 95 96 97 98 99 100 101 102 103 104
end
